<?xml version="1.0" encoding="UTF-8"?>
<svg id="_图层_1" data-name="图层 1" xmlns="http://www.w3.org/2000/svg" xmlns:xlink="http://www.w3.org/1999/xlink" viewBox="0 0 417.33 487">
  <defs>
    <style>
      .cls-1 {
        fill: #1fdb9c;
      }

      .cls-2 {
        fill: url(#_未命名的渐变_521);
      }

      .cls-3 {
        fill: url(#_未命名的渐变_268);
      }

      .cls-4 {
        fill: #89f7f7;
        opacity: .15;
      }

      .cls-5 {
        fill: url(#_未命名的渐变_324);
      }

      .cls-6 {
        fill: url(#_未命名的渐变_221);
      }

      .cls-7 {
        fill: url(#_未命名的渐变_535);
      }

      .cls-8 {
        opacity: .82;
      }

      .cls-9 {
        fill: url(#_未命名的渐变_2);
      }
    </style>
    <linearGradient id="_未命名的渐变_221" data-name="未命名的渐变 221" x1="266.81" y1="191.7" x2="322.81" y2="216.35" gradientUnits="userSpaceOnUse">
      <stop offset="0" stop-color="#1edc9b" stop-opacity=".1"/>
      <stop offset=".03" stop-color="#1fdb98" stop-opacity=".15"/>
      <stop offset=".15" stop-color="#24d78c" stop-opacity=".37"/>
      <stop offset=".27" stop-color="#28d483" stop-opacity=".57"/>
      <stop offset=".4" stop-color="#2bd27b" stop-opacity=".72"/>
      <stop offset=".54" stop-color="#2ed074" stop-opacity=".85"/>
      <stop offset=".68" stop-color="#30cf70" stop-opacity=".93"/>
      <stop offset=".83" stop-color="#31ce6d" stop-opacity=".98"/>
      <stop offset="1" stop-color="#32ce6d"/>
    </linearGradient>
    <linearGradient id="_未命名的渐变_535" data-name="未命名的渐变 535" x1="263.51" y1="330.41" x2="289.38" y2="413.53" gradientUnits="userSpaceOnUse">
      <stop offset="0" stop-color="#65ffbb"/>
      <stop offset="1" stop-color="#91e9e4"/>
    </linearGradient>
    <linearGradient id="_未命名的渐变_324" data-name="未命名的渐变 324" x1="207.28" y1="449.13" x2="39.95" y2="409.8" gradientUnits="userSpaceOnUse">
      <stop offset=".02" stop-color="#65daa7"/>
      <stop offset="1" stop-color="#28c8f0"/>
    </linearGradient>
    <linearGradient id="_未命名的渐变_268" data-name="未命名的渐变 268" x1="102.99" y1="429.37" x2="302.15" y2="429.37" gradientUnits="userSpaceOnUse">
      <stop offset="0" stop-color="#65f3d3"/>
      <stop offset="1" stop-color="#60e9c5"/>
    </linearGradient>
    <linearGradient id="_未命名的渐变_521" data-name="未命名的渐变 521" x1="86.08" y1="300.05" x2="266.8" y2="139.21" gradientUnits="userSpaceOnUse">
      <stop offset="0" stop-color="#24d5bc"/>
      <stop offset="1" stop-color="#93ffa4"/>
    </linearGradient>
    <linearGradient id="_未命名的渐变_2" data-name="未命名的渐变 2" x1="112.87" y1="305.36" x2="407.68" y2="20.81" gradientUnits="userSpaceOnUse">
      <stop offset="0" stop-color="#65f3d3"/>
      <stop offset="1" stop-color="#1be972"/>
    </linearGradient>
  </defs>
  <path class="cls-6" d="M253.23,198.85l36.95-35.1c3.94,3.92,7.48,8.07,10.57,12.41,3.01,4.22,5.59,8.62,7.72,13.17,4.54,9.69,7,20.09,7,30.9,0,2.47-.13,4.94-.38,7.37h-53.56c.69-2.4,1.04-4.86,1.04-7.37,0-7.73-3.37-15.02-9.34-21.39Z"/>
  <path class="cls-7" d="M315.47,381.16c0,16.6-4.78,32.29-13.32,46.27-5.19-17.36-19.42-35.63-39.94-50.99-2.31-15.72-16.19-29.33-36.24-37.43l18.06-26.73,12.81-18.95c5.72,3.06,11.12,6.48,16.14,10.2,24.82,18.35,40.81,44.2,42.35,73.03.08,1.52.13,3.05.13,4.59Z"/>
  <path class="cls-5" d="M222.04,482.3c-12.39,3.05-25.57,4.7-39.23,4.7-73.26,0-132.66-47.39-132.66-105.84,0-1.54.04-3.06.13-4.59h53.11c-.23,1.51-.34,3.03-.34,4.59,0,.21,0,.42.01.64-1.75,29.44,28.65,65.86,75.19,86.99,14.79,6.72,29.68,11.21,43.79,13.52Z"/>
  <path class="cls-3" d="M302.15,427.43c-15.9,26.08-44.86,46.18-80.1,54.87-14.11-2.31-29-6.8-43.79-13.52-46.54-21.13-76.94-57.55-75.19-86.99.54,27.38,36.04,49.46,79.75,49.46s79.76-22.42,79.76-50.1c0-1.55-.11-3.08-.34-4.59,0-.04-.01-.08-.03-.13,20.52,15.35,34.75,33.63,39.94,50.99Z"/>
  <polygon class="cls-1" points="266.33 298.95 236.69 344.11 225.97 339.02 256.84 293.33 266.33 298.95"/>
  <path class="cls-2" d="M229.93,282.18c4.84,1.47,9.54,3.16,14.1,5.05l-31.96,47.29c-4.98-1.24-10.23-2.16-15.65-2.74-1.17-.14-2.36-.24-3.54-.34h-.04c-3.25-.27-6.56-.4-9.91-.4h-.11c-3.32,0-6.58.13-9.79.38-.07,0-.16.01-.23.01h-.04c-12.52-.75-24.54-2.86-35.85-6.2h-.03c-13.01-3.84-25.08-9.26-35.79-15.98-2.92-1.82-5.74-3.74-8.45-5.74-16.54-12.24-29.16-27.79-36.18-45.36-.96-2.37-1.81-4.77-2.54-7.21-1.68-5.49-2.82-11.15-3.37-16.94-.25-2.67-.38-5.38-.38-8.09v-.03c0-3.81.25-7.58.76-11.29,7.04-53.15,63.42-94.55,131.9-94.55,38.09,0,72.43,12.8,96.61,33.32l-37.33,39.01c-14.59-10.19-35.75-16.58-59.29-16.58-41.43,0-75.5,19.84-79.4,45.24-.24,1.59-.37,3.22-.37,4.85,0,2.77.35,5.48,1.04,8.11,5.63,21.75,33.59,38.81,68.6,41.59.01-.01.03-.01.06,0,.14.01.27.01.41.03,3.18.24,6.39.37,9.65.37s6.76-.14,10.06-.4h.05c4.39.25,8.73.69,12.98,1.3,8.3,1.16,16.34,2.94,24.03,5.26Z"/>
  <polygon class="cls-9" points="417.33 30.81 359.67 116.15 308.47 191.91 279.99 234.03 244.03 287.24 212.07 334.53 182.81 377.83 172.95 366.52 172.93 366.51 136.9 325.26 72.03 250.97 50.15 225.92 103.05 225.92 173.17 269.96 182.81 276.02 253.23 202.38 290.18 163.75 357.65 93.2 417.33 30.81"/>
  <g class="cls-8">
    <path class="cls-4" d="M365.35,62.59l-183.09,190.86L0,63.48C45.75,24.43,110.9,0,183.2,0s136.45,24.05,182.15,62.59Z"/>
    <path class="cls-4" d="M337.05,92.16l-154.73,161.3L28.3,92.9c38.67-33,93.72-53.64,154.82-53.64s115.32,20.32,153.93,52.9Z"/>
    <path class="cls-4" d="M308.4,122.1l-126.01,131.36L56.95,122.71c31.49-26.88,76.33-43.69,126.09-43.69s93.91,16.55,125.36,43.08Z"/>
    <path class="cls-4" d="M279.39,152.41l-96.93,101.04-96.49-100.58c24.22-20.67,58.71-33.61,96.99-33.61s72.24,12.73,96.43,33.14Z"/>
    <path class="cls-4" d="M242.09,191.83l-59.54,61.62-58.73-60.63c14.91-10.93,36.91-16.9,59.02-16.9s44.35,5.96,59.26,15.9Z"/>
  </g>
</svg>